<svg id="svg8" width="562.8mm" height="373.6mm" version="1.1" viewBox="0 0 562.8 373.6" xmlns="http://www.w3.org/2000/svg" xmlns:cc="http://creativecommons.org/ns#" xmlns:dc="http://purl.org/dc/elements/1.1/" xmlns:rdf="http://www.w3.org/1999/02/22-rdf-syntax-ns#" xmlns:xlink="http://www.w3.org/1999/xlink">
  <g id="chassis" transform="translate(121.1,33.44)" fill="none" stroke="#000">
    <path id="path992" d="m-74.27 125.2c-2.46-8.1-0.28-16.9 2.84-17.3 5.1-0.6 9.96 4.7 15.09 14.3 5.54 10.4 9.07 24.2 10.12 28.7 0.94 4 6.43 14.1 10.12 16.5 6.78 4.4 26.443 16 52.84 33.6 32.66 21.8 67.78 47.4 67.78 47.4s-6.26-6.9-7.83-15.1c-1.99-10.4 0.28-26.6 9.55-29.4 13.52-4.2 30.16 2.6 45.46 21.9 18.4 22.4 24.9 48.7 27.4 55.1 2.5 6.5 7.3 14.7 9.3 15.9 1.7 1.1 8.2 2.6 10.3 2.6s41 0.5 57.7-5.3c16.9-5.9 17.2-9 22.5-10.5 5-1.9 36.5-17.2 48.4-26.2 5.7-4.2 13.1-12.2 18.2-18.8 5.6-7.1 8.6-12.9 8.8-14.5 0.5-3-0.3-6.6 0.2-8.5 0.6-1.9 7.7-24.5 7.2-37.4-0.8-12.8-3.2-22.1-3.2-22.1" stroke-width=".2646px"/>
    <path id="path1013" d="m325.3 157.5l0.5 1.2c1.6 0.4 10.1 3.3 11.5 2.5 1-0.7 1.6-7.5 0.7-9.7-1.2-2.8-7.2-15.4-10.3-20-2.9-4.5-18.8-25.1-21.2-28.5-2.7-3.43-23-35.55-23.6-36.5-0.5-0.93-2.6-3.39-4.2-3.57-1.8-0.19-5.8-1.72-6.9-1.51-1 0.18-0.2 1.51 0 2.43 0.3 0.96 19.1 30.25 20.9 34.4 1.9 4.15 2.8 6.45 2.5 8.45-0.2 1.2 1.5 2.1 2.2 2.4 0.8 0.4 4.6 3.9 7 7.1 2.1 3.2 8.6 12 11.2 17.1s6.5 14.8 7 15.7c0.3 0.8 1.6 2.1 2.2 4.8 0.3 1.4 0.6 2.6 0.5 3.7z" stroke-width=".2646px"/>
    <path id="path1015" d="m154.1 78.41c-2.1-0.19-5.1 0.1-4.7 2.28 0 1.14 6 40.31 7.3 45.31 1.1 5 4 16.5 12.2 25.2s50 47.8 52.4 50c2.6 2.2 8.2 6.6 12.4 7 4.3 0.3 7.7 0.3 8.8 0.3 1 0 1-0.7-0.3-2.6-1.1-1.9-5.3-7.3-7.9-9.9-2.7-2.7-33.1-33.8-36-37.3-3.2-3.6-18.8-16.5-22.5-38-3.7-21.39-5.6-31.79-6.4-36.34-0.8-4.52-1.8-4.23-3.1-4.52-1.4-0.3-12.2-1.43-12.2-1.43z" stroke-width=".2646px"/>
    <path id="path1071" d="m-74.27 125.2l-1.24 1.9s-2.88-9.1-2.17-16.9c0.74-7.8 3.28-14.59 5.69-16.79s6.35-4.68 8.73-6.85c2.36-2.2 14.16-11.06 17.09-14.29 12.43-12.82 35.94-28.11 42.611-31.5 6.824-3.48 18.359-6.21 24.499-6.68 6.14-0.45 26.09-0.67 57.92 6.35 27.94 6.12 73.84 19.21 84.74 22.32" stroke-width=".2646px"/>
    <path id="path1017" d="m162.6 64.41c-3.5 1.49-8.5 5.17-8.5 14" stroke-width=".2646px"/>
    <path id="path1019" d="m22.15 33.74c47.55-8.33 94.85-12.41 165.25-0.63" stroke-width=".2646px"/>
    <path id="path1023" d="m235.6 25.63c-13.5 3.55-50.3 21.27-66.4 36.81-4.6 4.47-6.1 7.42-6.6 8.64-0.8 1.21-1.9 1.11-2.2 1.11-0.5 0-1.3-0.45-1.3-0.9s-0.3-0.58 0.3-1.3c0.2-0.71 11.9-21.75 23.8-32.44 12.2-10.71 34.7-28.389 56.9-28.945 12.7 0.635 15.8 4.295 15.8 4.295" stroke-width=".2646px"/>
    <path id="path1025" d="m389 5.694c2.4 0.741 6.4 1.191 6.4 0.609 0-0.609-5.6-4.101-9-5.3979-8.2-3.8451-35.5-2.5581-48 2.1379-12.9 5.151-28.5 2.175-31.9 1.593-3.2-0.609-14.3-2.276-22.5 0.37-3.7 1.205-15.5 4.495-27.3 10.144-14.2 6.75-28.8 16.23-34.6 20.68-10.9 8.18-13.5 11.33-15.1 12.2-1.8 0.85-3.2 4.92-3.2 5.45s-1 0.53-1.6 0.74c-0.5 0.21-31.4 10.12-34.5 9.8" stroke-width=".2646px"/>
    <path id="path1027" d="m227.4 32.1c13.5-9.84 22-17.73 51-29.369 17.5-7.016 52.4-14.981 67.3-13.481 16.5 1.658 37.2 7.946 46.2 14.323" stroke-width=".2646px"/>
    <path id="path1029" d="m312.7 5.6c-14.6 3.202-32.4 7.87-45.1 13.19-12.4 5.29-41.8 25.75-47.4 30.75-5.8 5-8.4 7.41-11.9 9.07-3.4 1.67-15.1 4.24-18.2 4.4-2.9 0.16-16.5 2.79-24.8 3.95" stroke-width=".2646px"/>
    <path id="path1031" d="m225.3 54.59s35.4-3.25 38.3-3.38c3.2-0.16 9 0.37 11.4 0.97 2.1 0.61 8.2 1.59 10.9 1.35 2.9-0.21 12.9-1.66 22.2-3.38 9.5-1.75 14.5-4.87 16.7-6.3 2.3-1.43 13.2-9.16 16.9-11.35 3.4-2.2 11.4-5.16 13.2-5.85 1.6-0.66 15.9-4.97 16.4-5.21 0.8-0.24 0.8-0.37 0.8-0.69 0.3-0.29 5.8-11.51 6.1-11.88 0-0.371 0.3-0.529 0.5-0.609 0.3-0.08 1.9-3.568 1.9-3.568 0.1-0.753 0.1-1.056-0.5-1.283-0.5-0.227-9.1-2.802-9.7-2.7263-0.5 0.076-1.6 0.1514-1.6 0.5303 0 0.378-2 4.922-2 4.922l-1 0.08-0.7 0.227-0.6 0.606" stroke-width=".2646px"/>
    <path id="path1033" d="m372.1 20.75c-10-0.45-10.3 0-10.3 0l-11.6 0.77-4.8-0.77s-32.3 2.88-41.3 3.65c-8.7 0.74-51.6 11.96-63.8 19.98-11.9 8.02-10.3 6.19-15 10.21-4.5 4.02-16.7 8.13-19.9 8.87-3.2 0.76-10.8 1.53-11.9 1.82-1.3 0.29-4.2-1.35-4.8-1.96" stroke-width=".2646px"/>
    <path id="path1035" d="m358.9 18.34c-1.3 0.1-2.4 0.1-2.9 0.1-0.8 0-1.1-1.43-0.8-1.88 0.2-0.45 3.4-8.868 3.4-9.106 0 0 0.3-0.854 0.3-1.247 0.1-0.39-1.1-0.181-1.1-0.181-0.3 0-1.7 0.125-2.1 0.08-0.5-0.05-0.9-0.943-0.9-1.313 0.1-0.367 1-3.302 1-3.302 0.2-0.7609 0-1.1678-0.2-1.4133-0.1-0.2698-1-0.4562-1.6-0.3804" stroke-width=".2646px"/>
    <path id="path1037" d="m378.7 8.261s4.5-2.196 4.8-2.117c0.3 0.08 1.6 0.08 1.6 0.08" stroke-width=".2646px"/>
    <path id="path1041" d="m316 5.985s1 3.007 1.1 3.255c0.1 0.311 1.6-0.01 1.8-0.106 0.6-0.227 1.1-0.404 1.4-0.529 0.5-0.194 0.2-0.318 0.2-0.635 0-0.318-0.5-1.932-0.5-1.932" stroke-width=".2646px"/>
    <path id="path1045" d="m316.5-8.046c4.8-3.694 12.5-4.494 17.8-4.664" stroke-width=".2646px"/>
    <path id="path1047" d="m327.1-12.06c3.7-3.59 6.1-4.93 6.6-5.2 0.6-0.26 3 0.11 3.2 0.27 0.6 0.16 3.9 4.5 3.9 4.5" stroke-width=".2646px"/>
    <path id="path1049" d="m327.4-9.652c2.6-1.818 7.7-3.478 10.1-3.378 2.1 0.11 6.3 1.56 7.1 2.04" stroke-width=".2646px"/>
    <path id="path1051" d="m333.7-17.26s1.2 3.36 1.9 4.29" stroke-width=".2646px"/>
    <path id="path1058" transform="rotate(-13.24)" d="m377.4 92.82l-0.7 4.13c-0.1 0.44-0.3 0.8-0.8 0.81h-1.5c-0.4 0-0.8-0.36-0.8-0.81l-0.2-4.15" color="#000000" color-rendering="auto" image-rendering="auto" shape-rendering="auto" solid-color="#000000" stroke-miterlimit="10" stroke-width=".2" style="isolation:auto;mix-blend-mode:normal"/>
    <path id="rect1060" d="m361.5 6.735l1.1-0.115c1.1-0.201 2.3 0.532 2.5 1.675l1 5.685c0.2 1.14-0.7 2.24-1.7 2.44l-1.2 0.12c-1.2 0.12-2.2-0.53-2.4-1.68l-1-5.683c-0.2-1.142 0.5-2.223 1.7-2.442z" color="#000000" color-rendering="auto" image-rendering="auto" shape-rendering="auto" solid-color="#000000" stroke-miterlimit="10" stroke-width=".1998" style="isolation:auto;mix-blend-mode:normal"/>
    <path id="path1063" d="m364.4 16.41l-5.5 1.93" stroke-width=".2646px"/>
    <path id="path1073" d="m191.9 65.15l-29.3 5.93" stroke-width=".2646px"/>
    <path id="path1077" d="m137.5 314.9c-14 6.1-34.6-10.3-45.95-36.6-11.34-26.3-9.15-52.5 4.89-58.6 14.06-6 34.66 10.4 45.96 36.6 11.3 26.3 9.2 52.6-4.9 58.6l17.9-5.9" stroke-width=".2646px"/>
    <path id="path1121" d="m114.5 213.7c1.5-0.6 3-1 4.7-1.2" stroke-width=".2646px"/>
    <path id="path1077-9" d="m166.2 294.6c-1.8 6.9-5.5 12.1-10.8 14.4" stroke-width=".2646px"/>
    <path id="path1137" d="m-39.36 176.7c-9.36 5.6-24.08-2-32.87-16.9-8.8-14.9-8.34-31.4 1.02-37 4.26-2.5 9.64-2.3 15.06 0.1" stroke-width=".2646px"/>
    <path id="path1099" d="m-33.3 169c-1.19 3.3-3.21 6-6.06 7.7" stroke-width=".2646px"/>
    <path id="path1129" d="m-72.48 123.5l3.87-2.9c2.35-1.7 8.02-3.5 9.68-3.5" stroke-width=".2646px"/>
    <path id="path1111" d="m96.48 219.6l18.82-6.3" stroke-width=".2646px"/>
    <path id="path1139" d="m-44.79 178.5l8.3-1.2c2.57-0.4 5.51-2.9 6.39-5.9" stroke-width=".2646px"/>
    <path id="path1292" d="m251.5 144.3l-0.7 33.5" stroke-width=".2646px"/>
    <path id="path1149" d="m255.6 185.8l21 8.1" stroke-width=".2646px"/>
    <path id="path1151" d="m195.9 150.9c5.8-1.9 34.9-11.5 34.9-11.5s1.1-0.1 1.9-0.1 2.6-0.4 3.7-1.8c0.9-1.3 16.3-26.8 19.7-31.8 0.5-1 1-0.8 1.9-0.6 5.9 1.4 30.7 9.3 32.1 9.8 1.3 0.7 2.6 0.5 4 0.5" stroke-width=".2646px"/>
    <path id="path1153" d="m204.6 160.4c13.5-4.7 41.6-15.7 42.6-16 0.8-0.3 4.3-0.1 4.3-0.1" stroke-width=".2646px"/>
    <path id="path1169" d="m247.4 185.3l-13.9 5.8" stroke-width=".2646px"/>
    <path id="path1165" transform="translate(-121.1,-33.44)" d="m399.5 86.29c0.3 1.13 0.3 2.67 0.3 3.17s-1.3 0.13-1.8 0.5c-0.8 0.37-6.9 0.77-8.8 1.41-2.1 0.6-9.8 0.74-11.6 0.87-2.1 0.13-5.8-0.13-8.2 0.26-2.4 0.37-8.2 2.02-9.8 1.88-1.6-0.1-5.3 0.14-6.9 0.27-1.3 0.13-8.5 1.4-10 1.64-1.9 0.26-6.7 1.14-7.7 1.14-0.8 0-3.7 0.39-4.8 0.76-1 0.37-4.2 1.41-6.9 1.64-2.9 0.27-5.3 0.27-6.6 0.27-1 0-6.1 0.4-8.2 0.6-2.1 0.3-6.6 1.8-8.2 1.9s-9 1.8-10.6 1.9-2.9 1.1-6 0" stroke-width=".2646px"/>
    <path id="path1141" transform="translate(-121.1,-33.44)" d="m458.6 194.6c0.5 4.2 3.1 21.3 0.7 27.2-2.4 6.1-4 10.1-11.9 16.3-10.4 8.3-30.9 20.4-43.6 24.6-12.7 4.3-19 5-24.9-1.5-6-6.6-14.8-19.4-14.8-19.4" stroke-width=".2646px"/>
    <path id="path1143" transform="translate(-121.1,-33.44)" d="m313.3 111.6c9.8-3.7 64.5-11.82 69.6-11.2 4.7 0.7 3.2 0.2 6.1 5.2 2.9 5.1 14.5 29.1 18.5 33.4 4 4.4 8.7 10 11.1 13.9 2.4 3.8 20.4 37.5 19.6 47.3-1.1 9.9-2.1 15.8-9 21.3-6.9 5.6-25.7 15.4-34.4 18.2s-17.5 2.9-28.1-4.4c-10.8-7.3-53.7-55.2-55.8-57.3-2.4-2.1-8.7-11.5-9.5-16.9-0.8-5.3-3.7-23.5-3.7-27.7s1.8-17.7 15.6-21.8z" stroke-width=".2646px"/>
    <path id="path1145" transform="translate(-121.1,-33.44)" d="m369.9 237.1c3.7 0.3 5.6 0.3 9.5-1.4 3.7-1.8 35.3-16.5 39.2-19.7 3.8-3 10.2-9.7 9.5-15.9-0.6-6.2-2.6-13-2.9-15.4-0.3-2.5-1.3-3.6-4.5-5.4-3.4-1.8-13.2-6.1-15.6-6.6-2.1-0.5-3.2 1.1-3.4 3.2-0.3 2.1-1.5 16.4-0.3 24 1.3 7.8 2.9 14.9 5.8 16.6l5.3 3.1" stroke-width=".2646px"/>
    <path id="path1147" transform="translate(-121.1,-33.44)" d="m412 175.4s2.2 10.6 4.2 15.6c2.5 5.9 6.9 14 9.5 16.6" stroke-width=".2646px"/>
    <path id="path1167" transform="translate(-121.1,-33.44)" d="m391.3 91.1c1.6 0.87 3.2 0.9 2.4 3.55" stroke-width=".2646px"/>
  </g>
  <g id="batt-small">
    <path id="path1171" transform="scale(.2646)" d="m1400 702.5c-7 0-15 1-22 3.7-11 4.1-84 30.5-129 46.8 51 55.2 114 121 137 136.8 4 2.5 7 4.7 11 6.8 13 1 23 0.8 37-5.4 14-6.8 134-62.3 148-74.4 13-10 34-30.9 36-51.8-28-8.5-187-56.8-198-60-6-1.5-13-2.5-20-2.5z" fill="#f60" fill-rule="evenodd"/>
  </g>
  <g id="batt-large" fill-rule="evenodd">
    <path id="path1145-4" transform="scale(.2646)" d="m1382 659.4c-2-0.1-5 0.6-8 2.4l-156 58.6c49 52.9 98 104.3 149 152.7v0.2c1 1 11 10.5 19 16.6 3 2.1 6 4 9 5.8l3 0.9c14 1.1 22 1.1 36-5.3 14-6.8 134-62.3 148-74.4 11-8.2 27-23.7 33-40.5l2-7.3v-1.1l-18-39.3c-1-0.3-1-0.6-1-0.9v-0.2c-1-1.9-3-2.8-6-3.8l-198-61.6c-5-1.5-8-2.8-12-2.8zm224 98.8v0.4l2 1.8-2-1.8v0.1z" fill="#f60" stroke="#000" stroke-width="1.0002px"/>
    <path id="path1145-4-8" d="m424.8 200.7l-11.4 9.9c-1 0.8-1.8 1.4-3.1 1.9l-28.1 13.6c-1.6 0.9-3.2 1.3-4.7 1.6l-15.9 3.3c0.2 0.3 2.9 2.8 5 4.4 0.8 0.6 1.6 1.1 2.4 1.5l0.8 0.3c3.7 0.3 5.8 0.3 9.5-1.4 3.7-1.8 35.5-16.5 39.2-19.7 2.9-2.2 7.1-6.3 8.7-10.7l0.5-2.2z" fill="#d45500"/>
    <path id="path1205" d="m322.2 190.6l41.2-15.5c2.2-1.1 2.9-0.6 5.2 0.1l52.4 16.3c1.4 0.4 1.8 0.7 2.2 2l1.5 6.1c0.4 1.1 0.2 1.2-0.5 1.9l-10.8 9.1c-0.9 0.8-1.9 1.4-3 1.9l-28.1 13.6c-1.6 0.9-3.2 1.3-4.9 1.6l-15.8 3.3c-13.6-12.8-26.4-26.4-39.4-40.4z" fill="#f60"/>
    <path id="path1209" d="m424.9 200.7l2.9 2.8v-0.3l-5-10.7z" fill="#a40"/>
  </g>
</svg>
