<svg xmlns="http://www.w3.org/2000/svg" viewBox="0 0 3200 2400" id="svg-2013">
    <g transform="translate(0 -48)" id="2013-silhouette">
        <path id="path1259" d="M2762 159.6c-46-.2-90 2.5-126 5.8-84 7.6-334 70.6-445 109.7-49 17.2-113 50.5-176 86.4l-1-1.5c-182-1.8-331 88.6-429 170.8l-3-.7c-244-30.8-628-23-980.2 32.3l-1.9 1.8c-85.1-2.3-150.1 34.6-185 53.9-34.9 19.5-150.9 111.4-168.4 129-17.5 17.6-67.4 75.2-67.8 75.7-19.9 4.5-43.6 10.4-52.2 11.9-13.9 2.4-21.7 12.8-23.4 18.3-1.3 4.2-7.4 28.3-9 45.2l-.6.3C54.4 913.6 7.43 974 13.5 1039c6.1 82 18.4 106 27.9 131 5.4 14 22.5 51 33.8 59l6.2 4c2.8 14 6.2 29 10 45 25 103 62.3 181 83.2 177l112.1-13c7.6-1 12-15 13.2-35 53.9 41 127.5 96 170.1 130 69.9 56 275.8 213 318.9 249 43.3 37 132.1 125 132.1 125l3 3c-1 67 15 150 48 236 71 184 194 312 275 286 1-1 4-1 5-2l118-44c37-13 61-54 66-114 20 15 45 30 75 46 77 42 308-1 367-12 59-10 116-25 116-25s48-19 63-28 100-37 145-52c47-14 314-160 341-175 26-15 153-122 180-155 27-34 49-112 49-151 38-115 39-287 39-287s1-55-5-77c-4-20-19-68-30-87-11-20-36-41-36-41s-90-131-118-161-249-308.2-256-320.9c-8-12.5-23-26.8-39-31.6-18-4.7-43-7-43-7s-2-21.1-23-31.9c4-.9 7-1.8 11-2.4 16-2.6 21-1.2 25-3.4 5-2.3 3-3 6-5 4-2.1 15 0 19-4.3 2-3.1 2-9.9 1-13.5 20 1.7 41 1.5 63-3 77-15.2 181-37 203-45.7 21-8.7 51-25 72-39.1 21-14.1 79-54.4 112-75.1 32-20.5 205-94.4 215-98.8 4-2.1 7-5 7-7.5 8-16.8 26-52.5 42-79.7 1-.6 25-17.8 45-26.5l84-9.3c11 .6 22 1.4 25 1.1 2-.3 6-3.8 2-6.9-30-24.8-148-57.7-245-81-60-14.7-125-19.7-186-19.9z" fill="#f6f6f6" fill-rule="evenodd" stroke="#000" stroke-width="3"/>
    </g>
    <g transform="translate(0 -48)" id="2013-body" fill="none" fill-rule="evenodd" stroke="#000">
        <path id="path96" d="M75.2 1229c-11.3-8-28.4-45-33.8-59-9.5-25-21.8-49-27.9-131-6.07-65 40.9-125.6 80-140.7"/>
        <path id="path98" d="M224.7 834.5c-2.3-9-8.3-18.3-18.2-17.5-13 1.2-66 15.1-80 17.5-13.9 2.4-21.7 12.8-23.4 18.3-1.8 5.6-12.2 47.8-8.8 59 3.5 10.9 21 26.2 32.2 26.2 11.3 0 79.2-4 83.5-7 4.3-2 6-3 11.2-7.3 5.3-4.2 15.7-15.1 14.8-29.5-.8-14.3-9.3-51.8-11.3-59.7z"/>
        <path id="path100" d="M178.6 822.7s50.4-58.1 67.9-75.8c17.5-17.6 133.5-109.6 168.4-129 35-19.4 100.3-56.4 185.8-53.9 85.7 2.5 97.7 2.4 208 16.8s528.3 131.5 589.3 151"/>
        <path id="path102" d="M2323 648.3s2 11.7-1 16c-4 4.2-15 2.2-19 4.2-3 2.1-1 2.8-6 5.1-4 2.2-9 .8-25 3.4-16 2.5-19 8.4-36 10.1-18 1.7-645 74.1-662 79.2-18 5.1-85 16-114 22-29 5.9-69 10.6-79 6.7-5-2-5-10.5-4-13.5 28-64.1 63-108.2 121-168.8 81-85.6 266-255.3 516-252.9"/>
        <path id="path104" d="M1582 529.9c-244-30.8-628-23-980.2 32.3"/>
        <path id="path106" d="M1769 689c76-11.9 401-46.7 440-53.3 41-6.5 101 27.2 177 12.1 77-15.3 181-37 203-45.7 21-8.7 51-25 72-39.1 21-14.2 79-54.4 112-75.1 32-20.5 205-94.4 215-98.8 9-4.4 10-11.9-3-11.9-14 0-98 2.1-98 2.1s-2 7.6-11 5.4c-9-2.1-93 8.8-100 4.4s-7-5.4-30-3.3c-24 2.2-273 31.5-329 40.2-56 8.7-293 57.7-380 97.8-86 40.3-217 130.5-235 141.3-16 10.9-38 33.7-53 40.2-14 6.6-130 47.8-160 50-32 2.2-25-15.2-25-15.2"/>
        <path id="path108" d="M1468 784.6c-21-1-42-11.9-39-23.8 4-12 70-41.2 86-48.3 17-7.1 97-36.4 117-43.2 0 0 3-25.2 14-34.6 37-33.7 103-104.4 174-151 70-46.8 259-169.6 371-208.8 111-39.1 361-102.1 445-109.7 82-7.6 204-12 312 14.1 97 23.3 215 56.2 245 81 4 3.1 0 6.6-2 6.8-5 .6-25-1.3-41-1.8-26-.6-51 4.1-59 6.4-20 6-54 30.3-54 30.3"/>
        <path id="path110" d="M2994 384.7c9-22.9 54-102.4 60-115.4 6-10.6 2-18.2-4-19.3-5-1.2-189-32.7-295-17.4"/>
        <path id="path112" d="M2451 289.1c-49 15.2-298 86.9-407 153.2-108 66.3-182 131.6-216 151.1-35 19.6-78 73.9-103 90.2-27 16.3-131 57.6-161 56.5"/>
        <path id="path114" d="M1949 400c95-45.7 174-84.8 244-105.5 70-20.6 63-11.9 102-14.1 39-2.2 114-8.7 135 0s116-3.2 128-7.6c13-4.4 101-25 161-35.9 61-10.9 204-26.1 271-25 67 1.1 160 26.9 201 51.4"/>
        <path id="path116" d="M1729 555c-40 21.1-262 149-289 171.9-27 22.8-27 27.4-35 42.1-9 14.6-12 25.5-16 25.5"/>
        <path id="path118" d="M2435 280.7c-34 14.1-243 73.4-349 123.9-105 50.6-274 168.3-328 222.8-52 54.6-52 65.6-90 82.3-37 16.6-150 47.3-170 41.8-19-5.5-35 5.5-35 5.5"/>
        <path id="path120" d="M2259 678c23 10.4 25 33.3 25 33.3s25 2.3 43 7c16 4.8 31 19 39 31.6 7 12.7 228 291.1 256 321.1s118 161 118 161 25 21 36 41c11 19 26 67 30 87 6 22 5 77 5 77s-1 174-41 289"/>
        <path id="path122" d="M2772 1724c0 39-22 117-49 151-27 33-154 140-180 155-27 15-294 161-341 175-45 15-130 43-145 52s-63 28-63 28-57 15-116 25c-59 11-290 54-367 12-77-40-116-73-144-125-28-50-98-254-198-394-82-119-204-184-239-166-46.7 22-64.1 93-57.1 148 8.1 57 51.1 111 51.1 111l-3 15s-88.8-88-132.1-125c-43.1-36-249-193-318.9-249-69.8-55-223.5-170-236.2-180-9.9-7-38-48-42.3-61-4.3-12-40.3-110-56-155-15.8-46-64.7-133-94-121-31.28 12-10.8 72-3.2 106 11.4 51 37.7 93 37.7 93l-.8 10"/>
        <path id="path130" d="M2438 1058c-13 4-22 0-37-3s-203-61-210-63c-9-2-18 1-21 7-5 7-57 113-65 126-9 14-11 21-26 28-15 5-70 59-102 85-33 27-119 118-126 175-2 18-2 38 0 40 0 0 142 51 151 55 10 5 29 7 36 5s76-15 84-17c10-3 20-3 29 1 15 6 191 67 191 67"/>
        <path id="path132" d="M2145 1228c-24 23-66 58-79 71s-40 41-40 65c0 23-5 137-5 137"/>
        <path id="path134" d="M2142 1475l9-231"/>
        <path id="path136" d="M2516 1279c-35-25-129-56-138-58-11-3-21-13-31 9-9 23-19 75-22 88-1 11-1 18 4 34 5 15 87 173 87 173"/>
        <path id="path188" d="M1247 2436c-81 26-204-102-275-286-71.2-185-61.9-355 19-382 82-25 205 103 276 287s61 354-20 381"/>
        <path d="M175 1455c-20.6 6-57.8-73-83.12-175-25.27-102-29.04-189-8.42-194 20.64-5 57.84 74 83.04 176 25.3 102 29.1 188 8.5 193" id="path192"/>
        <path id="path196" d="M1851 1453l-64 17"/>
        <path id="path198" d="M2433 1085c26 33 98 209 99 259s-25 144-71 162c-45 19-101 49-105 49-5 0-19 10-19 19 0 11-93 38-93 38s-9-11-13-6c-3 6-136 47-151 52-16 4-70 7-109-19"/>
        <path id="path200" d="M2518 1432s-53-81-58-104c-4-22 5-66 7-70"/>
        <path id="path203" d="M1436 2274c-5 61-29 103-66 116"/>
        <path id="path124" d="M1514 925.8c17-49.7 31-62.9 80-81.8 50-19 254-58.5 322-71.2 69-12.6 235-26.8 259-28.4 24-1.6 45 12.4 61 34.8C2251 801 2350 964 2370 988c20 23 79 78 117 118 15 16 82 108 104 182 19 66 41 174-8 229-16 18-89 81-186 115-96 35-149 65-181 74-30 10-146 5-224-50-77-53-387-358-410-394-22-34-34-40-48-99-14-58-29-208-20-237.2z"/>
        <path id="path126" d="M1400 842.4c-19 3.1-39 3.1-54 4.7s-21 7.9-21 20.6c0 12.6 28 277.3 42 321.3 14 43 22 73 86 140s312 302 343 331c31 27 67 40 95 45s61 0 61 0-100-124-118-143c-19-20-243-251-267-274-25-23-71-69-83-128-13-58-35-279.7-39-295.5-6-15.8-45-22.1-45-22.1z"/>
        <path id="path128" d="M2740 1232c34 48 39 112 23 135-31-4-82-17-82-17s-20-45-35-73c-16-28-113-187-131-214-13-18-59-49-65-54-7-5 8-5-4-27-13-20-45-81.1-52-93.9-7-12.7-106-134-116-150.6-8-14.7-4-22.6 6-26.2"/>
        <path id="path210" d="M299.9 1407c-1.2 20-5.6 34-13.2 35"/>
        <path id="path214" d="M174.6 1455l112.1-13"/>
        <path id="path216" d="M82.5 1087l27.8-4"/>
        <path id="path225" d="M986 1770l120-45"/>
        <path id="path227" d="M1247 2436l123-46"/>
    </g>
    <g transform="translate(0 -48)" id="2013-upgrade-17-6">
        <path id="path234" d="M1879 1288c-72 20-145 40-218 60 92 93 239 234 309 291h1c39 26 93 23 109 19 15-5 148-46 151-52 4-5 13 6 13 6s93-27 93-38c0-9 14-19 19-19 4 0 60-30 105-49 26-9 44-43 57-80-35-10-344-106-353-109s-26-6-34-5c-8 2-73 14-83 16-6 1-14 4-21 1l-134-41c-5-1-9-1-14 0z" fill="#f60" fill-rule="evenodd"/>
        <path id="path256" d="M2137 1280h-6c-8 2-87 22-97 24l467 161c8-17 20-44 24-63-83-27-352-114-360-117-8-2-20-5-28-5z" fill="#f60" fill-rule="evenodd"/>
        <path id="rect276" d="M2034 1304v32l449 154c6-6 12-15 18-24v-1z" style="isolation:auto;mix-blend-mode:normal" color="#000" overflow="visible" fill="#d45500" stroke-width="3.78" stroke-miterlimit="10"/>
    </g>
    <g transform="translate(0 -48)" id="2013-upgrade-8-8">
        <path d="M1879 1288c-72 20-145 40-218 60 92 93 239 234 309 291h1c39 26 93 23 109 19 15-5 148-46 151-52 4-5 13 6 13 6s93-27 93-38c0-9 14-19 19-19 4 0 60-30 105-49 26-9 44-43 57-80-35-10-344-106-353-109s-26-6-34-5c-8 2-73 14-83 16-6 1-14 4-21 1l-134-41c-5-1-9-1-14 0z" id="path117" fill="#f60" fill-rule="evenodd"/>
        <path d="M2137 1280h-6c-8 2-87 22-97 24l467 161c8-17 20-44 24-63-83-27-352-114-360-117-8-2-20-5-28-5z" id="path119" fill="#f60" fill-rule="evenodd"/>
        <path style="isolation:auto;mix-blend-mode:normal" d="M2034 1304v32l449 154c6-6 12-15 18-24v-1z" id="path121" color="#000" overflow="visible" fill="#d45500" stroke-width="3.78" stroke-miterlimit="10"/>
    </g>
</svg>
