<svg xmlns="http://www.w3.org/2000/svg" viewBox="0 0 3200 2400" height="2400" width="3200" id="svg-env200evalia">
    <g id="env200evalia-silhouette">
        <path id="path244-5" d="M1969 52.5c-25 0-79 1.9-85 3.43-6 1.52-28 11.02-28 11.02s-109 16.55-128 25.09c-15 7.09-80 44.86-97 52.16-46 18.9-98 25.5-142 55.5 0 0-9 .7-13 1.1-3 .4-33 3.8-58 10.3-26 6.4-38 10.6-59 19-107 43-209 108.7-273 219.3-9 15.2-19 54.7-20 68.8-1 6.5-1 19.7 0 32l-1-.1c-33 3.1-130.6 13-174 24.4-43.3 11.4-267.1 92.3-303.3 104.9-27.1 9.4-93.5 33.5-136 53.9-42.6 20.5-94.6 62.9-117.9 89-62.5 70-103.2 155.3-144.5 236.7-3.5 7-8.3 17-13.8 28-1-5-2-9-2.5-10-1.6-4-8.6-14-15.7-15h-55.6c-5.43 0-19.52 13-21.09 25-2.34 20-7.04 65-6.26 72 .78 7-.78 23 16.44 28 6.57 2 19.71 4 33.91 6h-.2c-9.6 20-17.2 36-20.3 43-9.9 21-16.01 79-20.57 92-4.56 13-8.88 27-15.21 36-5.85 8-12.16 40-16.72 74-4.56 34-5.32 68-5.32 88 0 21 0 79 2.28 92 2.21 13 9.24 36 12.42 37 .89 94 20.55 169 44.02 169l94.1 5c15.8 0 29.3-34 36.2-85l-32.2-17c1.6 1 3.2 1 4.4 2 7 4 355 189 355 189h.2c0 16 .6 32 1.7 48 10.5 153 66.1 273 124.3 269l114.7 1h7.4c40.3-3 70.3-67 80.8-157l-3.1-2c33.6 10 71.9 22 82.7 25 19.3 5 35.7 8 51.7 9 16 0 203-3 225-3s26-9 37-21 17-14 34-19c8-2 198-26 388-50 1 3 3 7 6 11 15 25 55 44 79 47 36 6 50 8 87 3 53-7 103-40 123-97 58-8 100-13 102-13 9-1 7 10 7 10s33 4 37 1c4-4 71-14 86-18 14-3 23-25 26-36s4-43 5-56c0-14-3-14-7-24-4-9-12-33-13-45 0-13 1-23 4-38 2-16 4-64 5-77s-5-25-7-37c-2-11-4-111-4-136 0-78-4-155-6-233-1-28-7-95-9-122s-15-119-19-146c-15-94-42-181.1-87-263.4 0 0-19-29.7-31-49.4-12-19.8-32-36.5-47-39.6 0-5 2-10.7 4-15.6 4-11.4 24-36.5 31-42.9 6-6.5 5-5.7 24-9.5s60-16.4 93-30.1c34-13.6 104-34.9 137-44.8 33-9.9 100-22.1 133-29.3 34-7.2 95-9.5 118-11.8 23-2.2 69-9.5 111-12.5 41-3 115-13.3 145-18.3 30-4.9 127-26.2 165-39.9s54-38.4 54-38.4 52-1.1 73-3c22-1.9 38-4.2 47-6.1 9-1.9 10-10.6 7-12.5-3-1.9-3-6.1-21-14.1-17-8-59-31.5-77-38.8-18-7.2-63-25.8-89-34.6-25-8.7-68-23.5-98-33-88-27.9-177-53.4-268-73.4-31-6.8-148-33.1-172-38-127-24.64-255-45.67-384-55.55-25-1.91-84-4.95-108-4.95zM563.3 1918l5 2c.2 0 .4 1 .6 1z" fill="#f6f6f6" fill-rule="evenodd" stroke="#000" stroke-width="4"/>
    </g>
    <g id="env200evalia-body" fill="none" fill-rule="evenodd" stroke="#000" stroke-width="2">
        <path id="path244" d="M562.6 1918s-348-185-355-189c-6.7-3-21.2-6-28.2-8-6.7-1-24.3-16-27.3-26-3.1-10-21.4-115-25.1-135-3.9-21-13.6-75-20.6-94-6.68-18-17.46-38-25.81-38-8.4 1-23.57 23-26.61 40-3.04 17-3.04 54-3.04 71 0 16 1.52 78 3.04 90s6.84 24 3.8 24-6.84-22-9.12-35c-2.28-13-2.28-71-2.28-92 0-20 .76-54 5.32-88 4.56-34 10.87-66 16.72-74 6.33-9 10.65-23 15.21-36 4.56-13 10.67-71 20.57-92 3.1-7 10.7-23 20.3-43"/>
        <path id="path250" d="M175.3 1087c5.6-11 10.5-21 14-28 41.3-81.3 82-166.6 144.5-236.6 23.3-26.1 75.3-68.5 117.9-89 42.5-20.4 108.9-44.5 136-53.9 36.2-12.6 260-93.5 303.3-104.9 43.4-11.4 141-21.3 174-24.4"/>
        <path id="path240" d="M2044 659.7c15 3.1 35 19.8 47 39.6 12 19.7 31 49.4 31 49.4 45 82.3 72 169.4 87 263.3 4 27 17 119 19 146s8 94 9 122c2 78 6 155 6 233 0 25 2 125 4 136 2 12 8 24 7 37s-3 61-5 77c-3 15-4 25-4 38 1 12 9 36 13 45 4 10 7 10 7 24-1 13-2 45-5 56s-12 33-26 36c-15 4-82 14-86 18-4 3-37-1-37-1s2-11-7-10-768 95-785 99c-17 5-23 7-34 19s-15 21-37 21-209 3-225 3c-16-1-32.4-4-51.7-9-19.4-6-131.6-39-136.1-40-4.6 0-13.3-7-16-18-2.7-12-16-45-21.7-64-5.7-19-13.3-56-19.4-72-6-16-17.8-62-22.8-80-4.9-17-47.9-206-108.7-218-60.8-11-77.9 61-81 64 0 0-11 50-12.5 77s1.5 85 4.2 108c2.6 23 11 61 11 61l-5.7-2"/>
        <path id="path153" d="M1067 570.9c-1-12.8-3-41.8-1-52.6 1-14.1 11-53.6 20-68.8 64-110.6 166-176.3 273-219.3 21-8.4 33-12.6 59-19 25-6.5 55-9.9 58-10.3 4-.4 13-1.1 13-1.1 44-30 96-36.6 142-55.5 17-7.3 82-45.03 97-52.12 19-8.54 128-25.09 128-25.09s22-9.5 28-11.02c6-1.53 60-3.43 85-3.43 24 0 83 3.04 108 4.95 129 9.88 257 30.91 384 55.51 24 4.9 141 31.2 172 38 91 20 180 45.5 268 73.4 30 9.5 73 24.3 98 33 26 8.8 71 27.4 89 34.6 18 7.3 60 30.8 77 38.8 18 8 18 12.2 21 14.1 3 1.9 2 10.6-7 12.5-9 1.9-25 4.2-47 6.1-21 1.9-73 3-73 3s-16 24.7-54 38.4-135 35-165 39.9c-30 5-104 15.3-145 18.3-42 3-88 10.3-111 12.5-23 2.3-84 4.6-118 11.8-33 7.2-100 19.4-133 29.3-33 9.9-103 31.2-137 44.8-33 13.7-74 26.3-93 30.1-19 3.8-18 3-24 9.5-7 6.4-27 31.5-31 42.9-4 8.5-5 19.3-5 24.6 0 2.9-1 3.5-4 3.1l-102-14.4s-466-57.4-610-68.6c-144-11.3-255-11.1-255-11.1-4-.2-5-1.4-5-6.8z"/>
        <path id="path157" d="M1131 758.2c1-43 26-140.9 152-136.6 126 4.3 558 47.3 627 65.6 68 18.3 96 15.1 116 85 19 69.8 71 281.8 78 342.8 8 61 9 322 10 361 1 40 3 113 2 169s35 168-29 177c-65 8-782 86-816 89-105 0-146-67-150-208s4-396 2-477c-3-81 8-467.8 8-467.8z"/>
        <path id="path159" d="M2021 762.5c-8-1.1-14 0-22 2.1-9 2.2-9 8.6-6 14 4 5.4 72 229.4 78 269.4 5 41 10 65 12 104 2 38 7 419 5 458-2 38 0 140-3 156s-6 17-11 18"/>
        <path id="path161" d="M1629 1543c6-16 13-22 18-28s21-20 30-24 27-12 46-15c10-2 56-1 97 4 42 4 67 9 77 11 21 5 57 26 68 41 11 16 33 42 43 78s12 77 11 105-9 39-18 47-43 17-50 17c-6 0-31 0-44-2-13-3-271-52-282-69s-2-149 4-165z"/>
        <path id="path163" d="M80.61 1087c-2.34 20-7.04 65-6.26 72 .78 7-.78 23 16.44 28 17.21 5 79.81 11 86.11 10 6.2-1 10.9-3 10.2-9-.8-5-7.9-75-7.9-80s-4.7-27-6.2-31c-1.6-4-8.6-14-15.7-15h-55.6c-5.43 0-19.52 13-21.09 25z"/>
        <path id="path165" d="M153.8 1196c-4.7 27-7.4 45-7.4 48s-.8 8 3.9 6c4.7-1 119.7-70 134.6-81 14.9-11 43-48 51.6-74 8.6-26 66.6-265.8 70.5-279.1 3.9-13.3-.3-15-11.8-10.2C291.1 848.8 222.9 1009 178.3 1101"/>
        <path id="path167" d="M453.8 782.9c-13.3 43.2-46.5 191.5-54.2 218.1-7.8 27 2.2 86 8.8 93 6.7 7-5.5 12 25.5 10s408.4-44 431.6-47c23.3-2 23.3-18 26.6-37 3.3-19 42.1-322.3 43.2-341.1 1.1-18.8-14.4-35.4-27.7-34.3-13.3 1.1-431.7 122.8-439.4 123.9-7.8 1.1-14.4 14.4-14.4 14.4z"/>
        <path id="path187" d="M705.5 1678c-18.3 1-36.4 4-54.7 5-48.7 3-83.7 93-87.6 211"/>
        <path id="path181" d="M562.8 1918c0 16 .6 32 1.7 48 10.5 153 66.1 273 124.3 269l114.7 1h7.4c40.3-3 70.3-67 80.8-157"/>
        <path id="path207" d="M61.07 1654c-.77-94 17.72-170 41.33-170l9.5 1"/>
        <path id="path193" d="M235.4 1744c-6.9 51-20.4 85-36.2 85l-94.1-5c-23.55 0-43.27-76-44.03-170"/>
        <path id="path211" d="M2002 1982c-20 58-70 91-123 98-37 5-51 3-87-3-24-3-64-22-79-47-3-4-5-8-6-11"/>
        <path id="path252" d="M2271 439.4c-6 6.3-9 6.7-17 10.8-8 4-146 56.7-165 66.1-19 9.5-37 10.8-66 4.5-30-6.3-246-53.1-319-62.1s-357-38.1-425-35.1c-21 .9-24-13.5-24-13.5"/>
        <path id="path254" d="M1140 532.3c-21-2.2-34-13.2-24-23.1 10-9.9 54-40.6 71-57.1 18-16.4 64-63.6 89-85.6 25-21.9 123-59.2 163-70.2 39-11 75-24.1 139-41.7 64-17.5 118-26.9 145-42.8 55-31.9 204-118.5 290-129.47 85-10.98 119-8.78 148-6.59"/>
        <path id="path256" d="M2128 98.79c-39-1.1-175 7.71-284 74.61-110 66.9-99 53.8-146 66.9-48 13.2-269 77.5-319 92.2-35 10.4-105 44.7-163 119-3 4.2-8 13.8 10 12.7 17-1.1 70-1.1 147 14.3 77 15.3 231 42.8 315 50.5 83 7.6 262 23 311 31.8 50 8.8 82 18.6 118 15.3 36-3.2 114-35.1 173-54.8 59-19.8 132-40.6 158-46.1"/>
        <path id="path258" d="M1866 189.9c50-3.3 109-5.5 160 4.4 50 9.8 326 62.5 340 65.8 14 3.3 27 0 34 9.9s9 16.4 42 23c33 6.6 158 32.9 158 32.9"/>
        <path id="path260" d="M2953 396.2c8-4.4 21-7.7 3-13.2-17-5.5-250-57.1-265-57.1-16 0-33 4.4-50 7.7-16 3.3-27 7.7-49 3.3s-151-35.1-166-35.1c-14 0-35-23-56-26.3-21-3.3-298-57.1-335-63.7-38-6.6-188-17.5-223-11"/>
        <path id="path262" d="M2952 281c48 15.3 69 48.2 68 61.4-1 13.2-15 54.9-74 64.8"/>
        <path id="path264" d="M2648 332.5c48 11 244 52.7 244 52.7s13 9.9-8 12.1c-21 2.2-403 48.3-426 54.8-23 6.6-48 6.6-76 0-27-6.5-299-64.7-373-76.8-73-12-486-62.5-497-63.6-11-1.1-30-9.2-30-9.2"/>
    </g>
    <g id="env200evalia-upgrade-27" fill-rule="evenodd">
        <path id="path98" d="M1537 1535l-417 19c0 55 0 107 1 149 2 73 14 126 40 161l893-90 1-170z" fill="#f60"/>
        <path id="path157-8" d="M2055 1604l-935 72c1 9 1 18 1 27 2 73 14 127 40 161l893-90z" fill="#d45500"/>
    </g>
</svg>
