<svg xmlns="http://www.w3.org/2000/svg" viewBox="0 0 3200 2400" id="svg-gen1">
    <g transform="translate(0 260.3)" id="gen1-silhouette">
        <path id="path992-7" d="M2771-153.2h-5c-3 2-19 11-43 34-24 4-50 12-69 26.95-90 18-187 45-249 70-64 26.001-113 49-153 70l6-4s-21-23-104-28c-123 3-249 88.05-332 156.05l-12 4c-461-76.05-769-50-1080.3 4h58.2l-2.2 2c-29.5-1-50.7 0-63.2 1-40.4 3-115.6 21-160.2 44-43.9 21-198.3 122-280.5 206-19.2 21-96.3 79-111.9 93-15.4 14-41.2 30-56.9 45-15.93 14-32.52 59-37.36 109.5-4.5 49.8 13.12 107 14.18 109.9-32.01 49.2-25.25 135.3 21.38 213.8 47.4 80 120.8 128 179.3 123h.4l55-8c17.4-3 36.8-19 42.5-39h2.2c62.8 39 169.8 104 304.3 194 128.2 86 261.6 180 348.1 242l93 67c2 59 18 128 47 196 74 171 209 278 301 239l117-39c29-14 51-38 64-74l12-14c3 5 6 7 8 9 12 7 54 17 68 17s268 4 377-34c110-40 112-59 147-69 32-13 238-113 316-172 38-27 85-79 119-123 37-46 56-83 57-94 4-20-1-43 2-56 4-12 51-160 47-244-5-84-21-144.9-21-144.9 0-11.9-1-23.8-3-30-9-18.2-47-100.7-68-130.8-19-29.4-122-163.5-138-186.5-17-22-150-232-154-238-3-7-17-23-27-24-9-1-28-8-39-9l-17-25 3-2c16-2 37-4 41-6 3-2 12 0 12-3s0-13-2-20c17 3 38 5 48 4 19-1 85-11 145-22 63-12 96-32 109-41 16-10 87-60 111-75 23-14 74-33 86-38 11-4 104-32 108-34.05 5-2 5-2 5-4 2-2 38-75 40-78 0-1 0-2 1-2l45-11.999 4 13.999c0 3 3 4 5 4l11-3c3 0 3-3 3-6V-2.249l1-1c16 5 42 8 42 4 0-2-10-10-24-17.001l2-1c-59-41-194-82-303-92.95-3-1-9-1-14-1l7-1c-3-2-15-6-27-10h3s-23-28-26-29c0-1-10-2-16-2zm-420 490l16 23c5-17-5-17-16-23zM97.94 778.3h.87c-1.21 1.4-2.61 3-3.82 4.4z" fill="#f6f6f6" stroke="#000" stroke-width="4"/>
    </g>
    <g transform="translate(121.1 294.3)" id="gen1-body" fill="none" stroke="#000" stroke-width="2" stroke-miterlimit="4.286">
        <path d="M-23.08 747.9c-15.88-53-1.89-110.1 18.367-113.1 33.343-4 65.093 31 98.623 93.4 36.19 68 59.29 158.2 66.19 187.6 6.1 26.2 42 92.2 66.1 108.2 44.4 28 172.9 104 345.3 219C787 1386 1016 1553 1016 1553s-40.4-45-51-99c-12.8-68 1.9-173 63-192 88-27 196 17 297 143 120 147 162 319 178 361 17 42 48 96 61 103 12 8 54 17 68 17s268 3 377-34c110-39 112-59 147-69 32-12 238-112 316-171 37-28 86-80 119-123 37-46 56-84 58-95 3-19-3-43 1-55 4-13 50-160 47-245-5-83-21-144.2-21-144.2" id="path992"/>
        <path d="M2590 959l3 7.8c10 2.6 66 21.6 75 16.3 7-4.5 11-49 5-63.4-8-18.3-47-100.6-68-130.7-19-29.4-123-164.2-138-186.2-18-22-151-232-154-238-4-7-17-23-28-24-12-1-38-11-45-10-6 1-1 10 0 16 2 7 125 198 137 225s18 42 16 55c-1 8 10 14 15 16 4 2 29 25 45 46.2 14 21 56 78.5 73 111.8s43 96.7 46 102.6c2 5.2 11 13.7 14 31.4 2 9.1 5 17 4 24.2z" id="path1013"/>
        <path d="M1471 441.8c-14-1-33 1-31 15 0 8 39 263.6 48 296.3 7 32.7 26 107.8 80 164.7 53 56.9 326 312.2 342 327.2 17 14 54 43 81 45 28 2 50 2 57 2s7-4-1-17c-8-12-35-47-52-64-18-18-216-221.3-235-244.2-21-23.5-123-107.8-147-248.3-25-139.7-37-207.7-42-237.7-5-29-12-28-20-29-9-2-80-10-80-10z" id="path1015"/>
        <path d="M-23.08 747.9l-7.94 12.4s-18.9-59.5-14.4-110.5c4.95-51 21.58-95 37.037-110 15.76-14 41.513-30 57.043-44 15.42-15 92.54-73 111.74-94 81.3-84 234.9-183 278.5-206 44.6-22 120-40 160.1-44 40.4-2 172.5-4 380.4 42 182.6 40 482.6 126 553.6 146" id="path1071"/>
        <path d="M1526 350.8c-23 9-55 34-55 91" id="path1017"/>
        <path d="M606.9 149.8c312.8-54.05 621.1-81.05 1082.1-4" id="path1019"/>
        <path d="M2003 96.75c-88 24.05-328 139.05-433 241.05-31 29-41 48-44 56-5 8-12 8-14 8-3 0-9-3-9-6s-2-4 3-9c1-4 77-142 155-212 80-70 227-185.05 372-189.05 83 4 103 28 103 28" id="path1023"/>
        <path d="M3006-33.25c16 5 42 8 42 4s-37-27-59-35c-53-25-232-17-314 14-84 33-186 14-208 10-21-4-93-15-147 3-24 7-101 29.001-179 66-93 44-188 106.05-226 135.05-71 53-88 74-98 80-12 5-21 32-21 35 0 4-7 4-11 5-3 2-205 66-225 64" id="path1025"/>
        <path d="M1950 139.8c88-65.05 144-116.05 333-192.05 115-46 343-97.95 440-87.95 108 10 243 51.95 302 92.95" id="path1027"/>
        <path d="M2507-34.25c-95 21-211 52-294 87-81 34-273 168.05-310 201.05-38 32-55 48-78 59-22 11-99 28-119 28-19 2-108 19-162 27" id="path1029"/>
        <path d="M1936 286.8s232-22 250-23c21 0 59 3 75 7 14 4 54 10 71 9 19-2 85-11 145-22 62-12 95-32 109-42 15-9 87-59 111-74 22-14 75-33 86-38 10-4.05 104-32.05 107-34.05 6-1 6-3 6-4 1-2 37-76 40-78 0-3 2-4 3-4 2-1 12-24 12-24 1-4 1-6-3-8-3-1-60-18-63-18-4 1-11 1-11 4 0 2-13 32-13 32h-7l-4 2-4 4" id="path1031"/>
        <path d="M2896 65.75c-66-4-68 0-68 0l-76 4-31-4s-211 18-270 23c-57 5-337 79.05-417 131.05-77 52-67 40-98 67-29 26-109 53-130 57-21 5-71 11-78 13-8 1-27-10-31-13" id="path1033"/>
        <path d="M2809 49.75h-19c-5 0-7-9-5-12 1-3 22-58 22-59 0 0 2-6 2-9 1-2-7-1-7-1-2 0-11 1-13 1-4-1-6-7-6-9s6-21 6-21c1-5 0-8-1-10-1-1-7-3-11-2" id="path1035"/>
        <path d="M2939-16.25s29-15 31-14 11 1 11 1" id="path1037"/>
        <path d="M2529-31.25s6 19 7 21c1 2.001 11 0 12 0 4-2 7-3 9-4 3-1 1-2 1-4s-3-13-3-13" id="path1041"/>
        <path d="M2532-123.2c32-24 82-29 117-30" id="path1045"/>
        <path d="M2601-149.2c25-24 41-32 44-34 4-2 19 1 21 2 4 1 25 29 25 29" id="path1047"/>
        <path d="M2603-133.2c17-12 51-23 67-22 13 1 41 10 46 13" id="path1049"/>
        <path d="M2645-183.2s8 22 12 28" id="path1051"/>
        <path style="isolation:auto;mix-blend-mode:normal" d="M3003-44.25l2 27c0 3-1 5-4 6l-9 2.001c-3 1-6-1.001-7-4.001l-7-26" id="path1058" color="#000"/>
        <path style="isolation:auto;mix-blend-mode:normal" d="M2826-26.25l8-1c7-1 15 4 16 11l6 37c2 7-4 15-11 16l-8 1c-8 1-14-3-15-11l-7-37c-1-8 3-15 11-16z" id="rect1060" color="#000"/>
        <path d="M2845 36.75l-36 13" id="path1063"/>
        <path d="M1718 354.8l-192 39" id="path1073"/>
        <path d="M1362 1988c-91 39-226-68-300-239-73.9-172-60-344 32-383 92-40 226 67 301 238 73 172 60 344-33 384l117-39" id="path1077"/>
        <path d="M1212 1326c10-4 20-6 31-8" id="path1121"/>
        <path d="M1550 1855c-12 45-36 79-71 94" id="path1077-9"/>
        <path d="M204.9 1084c-61.2 37-157.41-13-214.873-110-56.947-97.4-53.947-205.2 6.7-241.8 27.823-16.3 63.003-15.1 98.433.6" id="path1137"/>
        <path d="M244.6 1034c-7.8 22-21.1 39-39.7 50" id="path1099"/>
        <path d="M-11.59 736.8l25.29-19c15.38-11.1 52.42-22.9 63.27-22.9" id="path1129"/>
        <path d="M1094 1365l123-41" id="path1111"/>
        <path d="M169.4 1096l54.3-8c16.8-2 36-19 41.8-38" id="path1139"/>
        <path d="M2107 872.7l-4 219.3" id="path1292"/>
        <path d="M2134 1144l137 53" id="path1149"/>
        <path d="M1744 915.8c38-12.4 228-75.1 228-75.1s7-.7 13-.7c5 0 17-2.6 24-11.7 5-8.5 106-175.5 128-207.5 4-7 7-6 13-4 38 9 200 60 210 63.7 8 4.6 17 3.3 26 3.3" id="path1151"/>
        <path d="M1801 977.9c88-30.7 272-102.6 278-104.5 5-2 28-.7 28-.7" id="path1153"/>
        <path d="M2081 1141l-91 38" id="path1169"/>
        <path d="M2283 274.8c2 7 2 18 2 21s-8 1-12 3c-5 3-45 5-57 10-14 3-64 4-76 5-14 1-38-1-53 2-16 2-54 13-65 12-10-1-34 1-45 2-8 1-55 9-65 11-12 1-44 7-50 7s-24 3-32 5c-6 2-27 9-45 11-19 2-34 2-43 2-7 0-40 2-53 3-14 2-43 12-54 13s-59 12-69 12c-11 1-20 8-40 0" id="path1165"/>
        <path d="M2670 983.1c3 27.9 20 138.9 4 177.9-16 40-26 66-78 106-68 55-202 134-285 161-83 28-124 33-162-9-40-44-97-128-97-128" id="path1141"/>
        <path d="M1720 440.8c64-25 421-78 455-73 30 4 20 1 39 34 20 33 95 190 121 218 27 29 57 65.3 73 90.8 16 24.9 133 245.1 128 309.4-7 64-14 103-59 139s-168 101-224 119c-58 18-115 19-184-29-71-47-351-360.6-365-374.4-15-13.7-57-75.1-62-110.4-5-34.6-24-153.4-24-181.4 0-27 12-116 102-142z" id="path1143"/>
        <path d="M2090 1261c24 2 36 2 62-9 24-12 231-108 256-129 25-20 67-63 62-104-4-40.4-17-84.9-19-100.5-2-16.4-8-23.6-29-35.3-22-11.8-87-39.9-102-43.2-14-3.2-21 7.2-22 20.9-2 13.7-10 107.2-2 157.1 8 51 19 97 37 108l35 20" id="path1145"/>
        <path d="M2365 857.7s14 69.3 27 101.9c17 38.6 45 91.4 62 108.4" id="path1147"/>
        <path d="M2230 306.8c10 5 21 6 15 23" id="path1167"/>
    </g>
    <g transform="translate(0 260.3)" id="gen1-upgrade-8-8">
        <path d="M2215 956.6c-13 0-27 1.7-39 6.4-19 7.1-145 53-223 81 88 96 198 209 237 237 7 4 12 7 19 11 23 2 40 2 64-9 24-12 232-108 256-129 23-17 59-53 62-89-48-15-323-98.5-342-104.1-10-2.6-22-4.3-34-4.3z" id="path1171" fill="#f60" fill-rule="evenodd" stroke-width=".265"/>
    </g>
    <g transform="translate(0 260.3)" id="gen1-upgrade-17-6" fill-rule="evenodd">
        <path d="M2183 882.1c-3 0-8 1-13 4.1l-270 101.4c84 91.4 169 180.4 257 263.4v1c2 2 19 18 33 29 5 3 11 7 16 10l5 1c24 2 38 2 62-9 24-12 232-108 256-129 19-14 47-41 57-70l4-12v-2l-31-68c-2-1-2-1-2-2-2-3.3-5-4.8-11-6.6l-342-106.5c-9-2.6-14-4.8-21-4.8zm388 170.9v1l3 3-3-3z" id="path1145-4" fill="#f60" stroke="#000" stroke-width=".265"/>
        <path d="M2570 1053l-75 65c-6 5-12 9-20 12l-184 89c-10 6-20 9-30 11l-104 21c1 2 19 19 32 29 6 4 11 7 16 10l5 2c25 2 38 2 62-9 25-12 233-108 257-129 19-14 46-41 56-70l4-14z" id="path1145-4-8" fill="#d45500"/>
        <path d="M1899 987.4l269-101.3c15-7.1 19-3.9 34 .7l343 106.5c9 2.6 12 4.6 14 12.7l10 40c3 7 1 8-3 13l-71 59c-6 5-12 9-19 12l-184 89c-11 6-21 9-32 11l-103 21c-89-83-173-172-258-263.6z" id="path1205" fill="#f60"/>
        <path d="M2570 1053l19 19v-2l-32-70.2z" id="path1209" fill="#a40"/>
    </g>
</svg>
